PathFileType	4	(X/Y/Z)	E:\Qualisys_Data\Carbon_Farble_Plate\Data\Amateur_Runner\S14\T2\S14T2V21_c3d.trc
DataRate	CameraRate	NumFrames	NumMarkers	Units	OrigDataRate	OrigDataStartFrame	OrigNumFrames
200.000000	200.000000	5	39	mm	200.000000	227	303
Frame#	Time	LSHO			RSHO			LICST			RICST			LASIS			LHEEL			RASIS			LTROC			RTROC			SACR			LTH1			LSK4			LTH2			LTH3			RHM5			LSK2			LTH4			RTH1			LTOE			RTH2			RTH3			RTH4			LLEP			RLEP			LSK1			LSK3			RSK1			LHM5			RSK2			LFT1			RSK3			RSK4			LLME			RLME			RTOE			RHEEL			RFT1			RFT2			LFT2			
		X1	Y1	Z1	X2	Y2	Z2	X3	Y3	Z3	X4	Y4	Z4	X5	Y5	Z5	X6	Y6	Z6	X7	Y7	Z7	X8	Y8	Z8	X9	Y9	Z9	X10	Y10	Z10	X11	Y11	Z11	X12	Y12	Z12	X13	Y13	Z13	X14	Y14	Z14	X15	Y15	Z15	X16	Y16	Z16	X17	Y17	Z17	X18	Y18	Z18	X19	Y19	Z19	X20	Y20	Z20	X21	Y21	Z21	X22	Y22	Z22	X23	Y23	Z23	X24	Y24	Z24	X25	Y25	Z25	X26	Y26	Z26	X27	Y27	Z27	X28	Y28	Z28	X29	Y29	Z29	X30	Y30	Z30	X31	Y31	Z31	X32	Y32	Z32	X33	Y33	Z33	X34	Y34	Z34	X35	Y35	Z35	X36	Y36	Z36	X37	Y37	Z37	X38	Y38	Z38	X39	Y39	Z39	

228	1.135	1708.436279296875	1453.362182617188	-506.0976257324219	1825.5615234375	1440.6005859375	-246.3621215820312	1768.580932617188	983.5424194335938	-498.6478576660156	1813.635375976562	993.199951171875	-229.9312744140625	1815.753540039062	935.8064575195312	-475.9900512695312	1948.58349609375	61.85796356201172	-380.8400268554688	1836.290649414062	948.870849609375	-247.6038818359375	1696.468383789062	855.8920288085938	-514.3455810546875	1681.854614257812	878.691650390625	-178.3898773193359	1651.9833984375	981.1795043945312	-358.6828918457031	1838.161743164062	647.32275390625	-522.8990478515625	1887.198608398438	276.2620849609375	-462.1324157714844	1775.586791992188	622.4459228515625	-484.544921875	1890.0615234375	565.32470703125	-497.6998291015625	1185.11865234375	294.7126770019531	-216.2270965576172	1864.47216796875	371.9499206542969	-478.3947143554688	1820.92822265625	537.6439208984375	-467.6749267578125	1744.621215820312	639.4284057617188	-187.2039794921875	2181.47314453125	159.5244445800781	-449.5460815429688	1670.655395507812	662.979248046875	-176.3799896240234	1718.191284179688	542.7591552734375	-205.5076141357422	1637.921020507812	568.0732421875	-193.4022827148438	1883.474487304688	480.7855834960938	-486.9283752441406	1634.004028320312	495.8619384765625	-192.8533325195312	1943.713745117188	389.8583374023438	-489.2898254394531	1965.750610351562	291.349609375	-476.6499328613281	1529.240600585938	433.8317260742188	-198.0347900390625	2125.502197265625	98.87485504150392	-494.4705200195312	1502.628662109375	515.4813232421875	-205.8056030273438	1973.7119140625	45.94479370117188	-359.715087890625	1430.903076171875	407.3169250488281	-219.4937438964844	1413.490478515625	484.2481079101562	-226.643310546875	1982.005737304688	107.7912826538086	-451.8565673828125	1259.687744140625	410.6153259277344	-256.2994384765625	1200.419677734375	205.3664855957031	-256.0991516113281	1249.396728515625	452.6231689453125	-325.3543090820312	1222.057739257812	434.3080749511719	-354.2870178222656	1218.21435546875	460.5743408203125	-303.9851379394531	1964.111572265625	31.85196685791016	-412.4529724121094
229	1.14	1728.392211914062	1447.528686523438	-507.2413635253906	1843.420288085938	1436.020141601562	-246.475830078125	1787.253662109375	979.2600708007812	-498.3769226074219	1832.8349609375	988.7632446289062	-229.5748748779297	1834.338745117188	931.7034912109376	-476.383544921875	1957.052856445312	60.67337417602539	-378.990234375	1855.47216796875	944.521240234375	-247.3335418701172	1714.956420898438	851.330078125	-513.5621948242188	1702.045043945312	873.1275024414062	-178.2492370605469	1671.1884765625	976.9718627929688	-357.8776245117188	1858.08984375	643.5997314453125	-521.5796508789062	1901.578247070312	271.9943237304688	-461.8861083984375	1794.991333007812	618.25439453125	-484.4773559570312	1909.898193359375	561.6513061523438	-496.0708923339844	1209.346435546875	296.9835205078125	-216.7176818847656	1880.341674804688	367.7593994140625	-477.7865295410156	1840.227783203125	533.3764038085938	-468.0234985351562	1767.978271484375	634.3416137695312	-186.2930603027344	2193.396728515625	147.8081817626953	-447.0588684082031	1693.70703125	656.5762939453125	-175.0142211914062	1743.28271484375	537.1070556640625	-204.3142242431641	1662.642944335938	561.4697875976562	-191.8043060302734	1902.025634765625	476.317138671875	-486.4968566894531	1659.67919921875	489.1004638671875	-191.3458404541016	1960.32177734375	384.2208862304688	-488.3237609863281	1980.333740234375	284.7083435058594	-475.329833984375	1554.795043945312	429.2356262207031	-197.2125854492188	2134.95654296875	89.39994812011719	-492.2919311523438	1528.94970703125	511.3314514160156	-204.8327026367188	1980.039428710938	42.87654113769531	-358.12744140625	1455.772827148438	404.3947448730469	-219.0618743896484	1440.199951171875	481.8952026367188	-225.6864471435547	1992.235107421875	102.4694061279297	-449.9888305664062	1285.365356445312	412.1644592285156	-256.3258056640625	1223.582275390625	207.1524658203125	-257.0808410644531	1275.085571289062	454.244140625	-325.3646240234375	1247.696533203125	435.9664001464844	-354.8920593261719	1243.791015625	462.3942260742188	-304.3088073730469	1969.893188476562	30.87059211730957	-411.015869140625
230	1.145	1748.129028320312	1441.681884765625	-508.8062133789062	1861.288452148438	1431.36328125	-246.4879455566406	1805.675659179688	974.4733276367188	-498.5776672363281	1851.874389648438	983.8617553710938	-229.4007415771484	1853.601318359375	927.4115600585938	-476.5555725097656	1964.05517578125	63.05731582641602	-379.7034301757812	1874.713745117188	939.8214721679688	-247.19970703125	1733.419799804688	846.916015625	-512.3154907226562	1722.526000976562	867.3833618164062	-178.0721130371094	1690.10498046875	971.7197875976562	-357.1238403320312	1878.169189453125	639.884765625	-520.4615478515625	1915.813110351562	266.9890747070312	-460.5211791992188	1814.571166992188	613.8715209960938	-484.7910461425781	1929.819458007812	557.8770141601562	-495.4242858886719	1234.225952148438	298.2908935546875	-217.0133666992188	1897.44677734375	363.1710815429688	-477.2418823242188	1859.837768554688	529.279541015625	-468.7847290039062	1791.669677734375	629.3193969726562	-185.6014099121094	2205.173828125	132.7294311523438	-444.9844055175781	1717.221313476562	650.1162719726562	-174.1546936035156	1768.53076171875	531.2702026367188	-203.1959991455078	1687.3828125	554.2505493164062	-190.5313110351562	1920.384399414062	471.3098754882812	-486.0567016601562	1685.965942382812	482.7382507324219	-189.4881286621094	1976.886596679688	378.262939453125	-487.9859313964844	1994.581665039062	278.3584289550781	-474.1160888671875	1580.489135742188	424.4678955078125	-195.9558715820312	2141.90673828125	78.06543731689453	-490.2638244628906	1556.73388671875	506.6307983398438	-202.8153076171875	1985.275390625	40.48073959350586	-356.8081359863281	1481.6396484375	401.4967651367188	-219.006591796875	1466.903442382812	479.344970703125	-224.7959289550781	2002.067993164062	96.65313720703124	-447.9927978515625	1311.194702148438	412.8956298828125	-256.3002624511719	1247.768310546875	208.6546936035156	-257.7590026855469	1300.685424804688	455.8255310058594	-326.1344299316406	1273.646240234375	437.2865905761719	-354.6235046386719	1272.222412109375	464.6220703125	-303.1669616699219	1971.448486328125	29.84020042419434	-410.01904296875
231	1.15	1768.106567382812	1435.3408203125	-510.6903076171875	1879.101318359375	1426.482543945312	-246.926025390625	1824.099365234375	969.786865234375	-498.6761779785156	1870.698608398438	978.8436279296876	-229.4322662353516	1872.164306640625	922.80224609375	-476.85400390625	1970.946166992188	62.7097053527832	-378.7924499511719	1893.64697265625	934.7124633789062	-247.5515441894531	1751.587524414062	841.8336791992188	-511.378173828125	1742.546020507812	861.2037353515625	-177.7503051757812	1708.997680664062	966.9994506835938	-356.5559997558594	1898.636474609375	636.3483276367188	-519.0210571289062	1929.962646484375	262.1170349121094	-459.8638610839844	1834.228759765625	609.22021484375	-484.7744140625	1949.882568359375	554.4113159179688	-493.6765747070312	1259.842895507812	299.1697998046875	-217.5159454345703	1912.929565429688	359.2648315429688	-477.4710693359375	1879.891357421875	524.4050903320312	-468.8013000488281	1815.446044921875	624.1096801757812	-185.2924499511719	2215.49560546875	115.9793930053711	-443.0870056152344	1740.792236328125	643.4505004882812	-173.118896484375	1794.090698242188	525.5309448242188	-201.79833984375	1712.757690429688	547.1107788085938	-188.8701934814453	1938.841430664062	466.736572265625	-485.8550109863281	1712.2412109375	476.021484375	-187.7357177734375	1992.978515625	373.0104675292969	-487.3168334960938	2009.13037109375	272.3974609375	-472.4100036621094	1606.821655273438	419.4782409667969	-194.9787139892578	2149.274658203125	65.71823120117188	-488.2806091308594	1584.394287109375	502.3365478515625	-201.134033203125	1990.284545898438	37.9380989074707	-355.8711853027344	1507.18017578125	398.2999267578125	-218.4810791015625	1494.322509765625	476.4862060546875	-223.8918609619141	2011.269409179688	91.25099182128906	-446.271240234375	1337.606811523438	413.1236267089844	-256.438720703125	1273.111328125	209.3424835205078	-258.3586120605469	1327.196166992188	456.5006713867188	-326.0987854003906	1299.861328125	438.5717163085938	-354.8210754394531	1299.054077148438	465.1294555664062	-302.8466186523438	1976.074951171875	29.45233535766602	-409.9678955078125
232	1.155	1788.013916015625	1429.128540039062	-512.077880859375	1896.684448242188	1421.489013671875	-246.7299346923828	1842.159057617188	964.8108520507812	-498.846435546875	1889.830078125	973.5570678710938	-229.0447235107422	1890.940185546875	918.3366088867188	-477.2165222167969	1977.1650390625	60.87592697143555	-377.4732971191406	1912.97607421875	929.5949096679688	-247.3959350585938	1770.040283203125	836.6482543945312	-510.3850708007812	1763.074462890625	855.1571044921875	-177.4730224609375	1727.504150390625	961.6791381835938	-355.6288757324219	1918.883666992188	632.6282958984375	-517.4976196289062	1943.848754882812	258.644775390625	-459.34716796875	1853.674560546875	604.366943359375	-485.6724853515625	1969.721435546875	550.4141845703125	-492.5257873535156	1285.98876953125	299.2322692871094	-217.7930603027344	1929.622680664062	355.7942810058594	-478.5913696289062	1899.843994140625	520.0006103515625	-469.353759765625	1839.620727539062	618.9188842773438	-184.3134002685547	2225.414306640625	97.77847290039062	-440.3905334472656	1764.718627929688	636.4661865234375	-171.7908325195312	1820.126586914062	519.9977416992188	-200.7847442626953	1738.036010742188	539.9569702148438	-187.2035064697266	1957.839477539062	462.0022888183594	-486.0657043457031	1739.23583984375	469.3941650390625	-186.0345153808594	2010.448852539062	366.0157775878906	-485.9565124511719	2023.128784179688	266.34765625	-470.3073425292969	1633.267700195312	414.653564453125	-193.4809722900391	2155.955322265625	52.53562164306641	-486.5474243164062	1612.137939453125	497.6187744140625	-199.7095642089844	1993.854248046875	36.65789413452148	-355.8210144042969	1533.61474609375	394.8344116210938	-218.0328369140625	1521.954956054688	473.2415771484375	-222.6999206542969	2019.236206054688	86.55679321289062	-445.167236328125	1364.47119140625	412.8996887207031	-256.3612976074219	1298.704223632812	209.7199859619141	-259.2548522949219	1354.036376953125	456.9178771972656	-325.4823608398438	1326.375732421875	439.0330505371094	-354.6094970703125	1325.874267578125	465.5290222167969	-302.4567260742188	1979.46484375	28.76140403747559	-409.3581848144531
